<svg width="278" height="40" viewBox="0 0 278 40" fill="none" xmlns="http://www.w3.org/2000/svg"><g clip-path="url(#a)"><path d="M11.081 30.527l-4.72 4.721a.933.933 0 0 1-1.317 0l-.292-.292a.933.933 0 0 1 0-1.316l4.72-4.721a.933.933 0 0 1 1.318 0l.291.291a.93.93 0 0 1 0 1.317z" fill="#FBBC04"/><path d="M23.75 32.5h6.042a6.04 6.04 0 0 0 6.041-6.042v-16.25a6.04 6.04 0 0 0-6.041-6.041 6.04 6.04 0 0 0-6.042 6.041V32.5z" fill="#4285F4"/><path d="M13.75 32.5a6.04 6.04 0 0 0 6.042-6.042 6.04 6.04 0 0 0-6.042-6.041 6.04 6.04 0 0 0-6.042 6.041A6.04 6.04 0 0 0 13.75 32.5z" fill="#FBBC04"/><path d="M27.97 32.5h-5.887a6.04 6.04 0 0 1-6.041-6.042v-7.916a6.04 6.04 0 0 1 6.041-6.042 6.04 6.04 0 0 1 6.042 6.042v13.804a.154.154 0 0 1-.154.154z" fill="#34A853"/><path d="M28.125 32.346V18.542a6.042 6.042 0 0 0-4.375-5.807V32.5h4.22a.154.154 0 0 0 .155-.154z" fill="#1967D2"/><path d="M19.792 26.575a6.04 6.04 0 0 0-3.75-5.59v5.59c0 1.72.72 3.273 1.875 4.373a6.024 6.024 0 0 0 1.875-4.373z" fill="#EA4335"/></g><path d="M136.949 24.423c0 1.404-.515 2.533-1.543 3.385-1.044.837-2.311 1.255-3.802 1.255-1.327 0-2.497-.388-3.511-1.163-1.014-.775-1.714-1.834-2.102-3.176l1.968-.805c.134.478.32.91.559 1.297.238.388.518.72.839.995.32.276.674.492 1.062.649.388.156.798.235 1.23.235.939 0 1.707-.243 2.304-.727.596-.485.894-1.13.894-1.934 0-.671-.246-1.245-.738-1.722-.462-.462-1.327-.91-2.594-1.342-1.282-.462-2.08-.775-2.393-.94-1.699-.864-2.549-2.138-2.549-3.823 0-1.178.47-2.184 1.409-3.02.954-.834 2.124-1.252 3.511-1.252 1.222 0 2.281.313 3.175.94.895.611 1.491 1.379 1.789 2.303l-1.923.805a2.844 2.844 0 0 0-1.062-1.487c-.53-.395-1.174-.592-1.935-.592-.805 0-1.483.223-2.035.668-.551.416-.827.957-.827 1.625 0 .55.216 1.025.649 1.425.476.401 1.512.876 3.108 1.425 1.625.553 2.784 1.23 3.477 2.029.694.8 1.041 1.781 1.041 2.947h-.001zM143.635 29.062c-1.61 0-2.937-.551-3.981-1.655-1.043-1.103-1.565-2.496-1.565-4.181s.507-3.06 1.521-4.17c1.013-1.111 2.31-1.666 3.891-1.666 1.58 0 2.918.525 3.88 1.576.962 1.05 1.442 2.523 1.442 4.416l-.022.224h-8.61c.03 1.073.388 1.938 1.074 2.594a3.43 3.43 0 0 0 2.459.984c1.312 0 2.341-.656 3.086-1.968l1.834.894a5.464 5.464 0 0 1-2.046 2.17c-.872.521-1.859.782-2.963.782zm-3.287-7.156h6.284a2.731 2.731 0 0 0-.928-1.89c-.559-.499-1.309-.748-2.248-.748-.775 0-1.443.238-2.002.715-.559.477-.927 1.118-1.106 1.923zM154.398 17.389c1.52 0 2.72.406 3.6 1.219.879.813 1.319 1.927 1.319 3.343v6.753h-1.967v-1.52h-.09c-.85 1.252-1.983 1.878-3.399 1.878-1.208 0-2.218-.358-3.03-1.073-.813-.716-1.219-1.61-1.219-2.684 0-1.132.428-2.035 1.285-2.706.857-.67 2.002-1.006 3.433-1.006 1.222 0 2.229.224 3.019.671v-.47c0-.715-.283-1.323-.85-1.822-.567-.5-1.23-.75-1.99-.75-1.148 0-2.057.485-2.728 1.454l-1.812-1.14c.999-1.431 2.475-2.147 4.428-2.147h.001zm-2.661 7.961c0 .537.227.984.682 1.342.454.358.987.537 1.599.537.864 0 1.636-.32 2.314-.962.678-.64 1.018-1.394 1.018-2.259-.642-.506-1.536-.76-2.684-.76-.835 0-1.532.201-2.091.604-.559.402-.839.902-.839 1.498h.001zM163.331 28.704h-2.057V17.747h1.968v1.789h.089c.209-.582.638-1.077 1.286-1.487.649-.41 1.286-.615 1.912-.615.626 0 1.103.09 1.521.268l-.626 1.99c-.254-.104-.657-.156-1.208-.156-.775 0-1.45.313-2.024.94a3.141 3.141 0 0 0-.861 2.19v6.038zM173.569 29.062c-1.625 0-2.975-.551-4.048-1.655-1.059-1.132-1.588-2.527-1.588-4.181 0-1.655.529-3.079 1.588-4.182 1.073-1.103 2.423-1.655 4.048-1.655 1.118 0 2.094.28 2.929.839.835.559 1.461 1.33 1.879 2.314l-1.879.783c-.581-1.372-1.603-2.058-3.063-2.058-.94 0-1.753.38-2.438 1.141-.671.76-1.006 1.7-1.006 2.818s.335 2.057 1.006 2.817c.685.76 1.498 1.14 2.438 1.14 1.505 0 2.563-.685 3.175-2.057l1.834.783c-.403.984-1.033 1.755-1.89 2.314-.857.56-1.852.84-2.985.84zM179.7 12.693h2.057v5.054l-.089 1.52h.089c.313-.536.795-.983 1.443-1.341a4.136 4.136 0 0 1 2.024-.537c1.341 0 2.374.384 3.097 1.152.723.768 1.084 1.86 1.084 3.276v6.887h-2.057V22.22c0-1.968-.872-2.952-2.616-2.952-.836 0-1.54.347-2.114 1.04-.574.693-.861 1.503-.861 2.427v5.97H179.7V12.693zM204.634 29.062c-2.371 0-4.354-.797-5.949-2.393-1.58-1.595-2.37-3.585-2.37-5.97 0-2.386.79-4.368 2.37-5.949 1.58-1.61 3.563-2.415 5.949-2.415 2.385 0 4.375.872 5.881 2.616l-1.476 1.432c-1.148-1.387-2.616-2.08-4.405-2.08-1.789 0-3.258.596-4.45 1.789-1.178 1.178-1.767 2.714-1.767 4.607 0 1.893.589 3.429 1.767 4.606 1.192 1.193 2.675 1.79 4.45 1.79 1.863 0 3.481-.783 4.852-2.349l1.499 1.454a7.774 7.774 0 0 1-2.796 2.113 8.52 8.52 0 0 1-3.555.75zM211.778 23.226c0-1.685.529-3.079 1.588-4.182 1.073-1.103 2.422-1.655 4.048-1.655 1.625 0 2.966.552 4.025 1.655 1.073 1.103 1.61 2.497 1.61 4.182 0 1.684-.537 3.093-1.61 4.181-1.059 1.104-2.401 1.655-4.025 1.655-1.625 0-2.975-.551-4.048-1.655-1.059-1.103-1.588-2.496-1.588-4.181zm2.058 0c0 1.178.342 2.132 1.028 2.862.686.73 1.536 1.096 2.55 1.096 1.014 0 1.863-.365 2.549-1.096.685-.73 1.029-1.684 1.029-2.862 0-1.178-.344-2.11-1.029-2.84-.701-.746-1.551-1.119-2.549-1.119-.999 0-1.849.373-2.55 1.119-.686.73-1.028 1.677-1.028 2.84zM224.509 17.747h1.968v1.52h.09c.313-.536.794-.983 1.442-1.341a4.136 4.136 0 0 1 2.024-.537c1.342 0 2.374.384 3.097 1.152.723.768 1.085 1.86 1.085 3.276v6.887h-2.058v-6.753c-.044-1.789-.947-2.684-2.706-2.684-.82 0-1.506.332-2.057.995-.552.664-.827 1.458-.827 2.382v6.06h-2.058V17.746zM244.519 25.663c0 .954-.417 1.76-1.252 2.415-.835.656-1.886.984-3.153.984-1.104 0-2.073-.287-2.907-.86a4.734 4.734 0 0 1-1.789-2.27l1.833-.783c.269.656.66 1.166 1.174 1.532a2.851 2.851 0 0 0 1.689.547c.656 0 1.204-.14 1.643-.424.44-.283.66-.619.66-1.007 0-.7-.537-1.215-1.61-1.543l-1.878-.47c-2.133-.536-3.198-1.565-3.198-3.085 0-.999.406-1.8 1.219-2.404.812-.604 1.852-.905 3.119-.905.969 0 1.845.23 2.628.693.783.462 1.331 1.08 1.643 1.856l-1.833.76a2.309 2.309 0 0 0-1.018-1.084 3.191 3.191 0 0 0-1.576-.392c-.537 0-1.017.134-1.443.403-.425.268-.637.596-.637.984 0 .626.589 1.073 1.767 1.341l1.655.425c2.176.537 3.265 1.633 3.265 3.288h-.001zM245.292 23.226c0-1.685.529-3.079 1.588-4.182 1.073-1.103 2.422-1.655 4.048-1.655 1.625 0 2.966.552 4.025 1.655 1.073 1.103 1.61 2.497 1.61 4.182 0 1.684-.537 3.093-1.61 4.181-1.059 1.104-2.401 1.655-4.025 1.655-1.625 0-2.975-.551-4.048-1.655-1.059-1.103-1.588-2.496-1.588-4.181zm2.058 0c0 1.178.342 2.132 1.028 2.862.686.73 1.536 1.096 2.55 1.096 1.014 0 1.863-.365 2.549-1.096.685-.73 1.029-1.684 1.029-2.862 0-1.178-.344-2.11-1.029-2.84-.701-.746-1.551-1.119-2.549-1.119-.999 0-1.849.373-2.55 1.119-.686.73-1.028 1.677-1.028 2.84zM260.108 12.693v16.011h-2.058V12.693h2.058zM267.14 29.062c-1.61 0-2.937-.551-3.98-1.655-1.044-1.103-1.566-2.496-1.566-4.181s.507-3.06 1.521-4.17c1.014-1.111 2.311-1.666 3.891-1.666 1.581 0 2.919.525 3.88 1.576.962 1.05 1.442 2.523 1.442 4.416l-.022.224h-8.609c.029 1.073.387 1.938 1.073 2.594a3.43 3.43 0 0 0 2.46.984c1.311 0 2.34-.656 3.086-1.968l1.834.894a5.464 5.464 0 0 1-2.046 2.17c-.873.521-1.86.782-2.963.782h-.001zm-3.287-7.156h6.284a2.731 2.731 0 0 0-.928-1.89c-.559-.499-1.308-.748-2.248-.748-.775 0-1.442.238-2.001.715-.559.477-.928 1.118-1.107 1.923zM57.577 21.682v-2.476h8.287c.084.437.134.956.134 1.518 0 1.857-.508 4.156-2.144 5.792-1.59 1.658-3.624 2.542-6.32 2.542-4.995 0-9.194-4.067-9.194-9.064 0-4.995 4.2-9.063 9.194-9.063 2.762 0 4.73 1.083 6.21 2.498l-1.746 1.747c-1.061-.995-2.497-1.769-4.464-1.769-3.647 0-6.498 2.94-6.498 6.588s2.851 6.588 6.498 6.588c2.365 0 3.713-.95 4.575-1.813.702-.702 1.164-1.71 1.344-3.087h-5.876zM78.626 23.223c0 3.36-2.63 5.836-5.856 5.836-3.227 0-5.857-2.476-5.857-5.837 0-3.36 2.63-5.836 5.857-5.836 3.226 0 5.856 2.454 5.856 5.837zm-2.563 0c0-2.1-1.525-3.537-3.293-3.537-1.768 0-3.293 1.436-3.293 3.537 0 2.1 1.525 3.536 3.293 3.536 1.769 0 3.293-1.459 3.293-3.537zM91.403 23.223c0 3.36-2.63 5.836-5.857 5.836-3.227 0-5.857-2.476-5.857-5.837 0-3.36 2.63-5.836 5.857-5.836 3.227 0 5.857 2.454 5.857 5.837zm-2.564 0c0-2.1-1.524-3.537-3.292-3.537-1.768 0-3.294 1.436-3.294 3.537 0 2.1 1.525 3.536 3.294 3.536 1.768 0 3.292-1.459 3.292-3.537zM103.649 17.74v10.478c0 4.31-2.541 6.08-5.547 6.08-2.83 0-4.53-1.902-5.172-3.449l2.232-.929c.398.95 1.37 2.078 2.94 2.078 1.923 0 3.116-1.194 3.116-3.426v-.84h-.088c-.575.707-1.68 1.326-3.072 1.326-2.918 0-5.592-2.542-5.592-5.814 0-3.272 2.674-5.858 5.592-5.858 1.392 0 2.497.619 3.072 1.304h.088v-.95h2.431zm-2.254 5.504c0-2.056-1.37-3.559-3.117-3.559-1.746 0-3.248 1.503-3.248 3.56 0 2.055 1.48 3.514 3.248 3.514 1.769 0 3.117-1.48 3.117-3.515zM107.991 11.608v17.097h-2.563V11.608h2.563zM117.891 25.145l1.989 1.326c-.641.951-2.188 2.587-4.862 2.587-3.315 0-5.791-2.565-5.791-5.836 0-3.471 2.498-5.837 5.503-5.837 3.006 0 4.509 2.41 4.995 3.714l.265.663-7.802 3.228c.597 1.172 1.526 1.769 2.829 1.769 1.304 0 2.211-.642 2.874-1.614zm-6.122-2.1l5.215-2.166c-.287-.73-1.149-1.238-2.165-1.238-1.304 0-3.117 1.15-3.05 3.405z" fill="#5F6368"/><defs><clipPath id="a"><path fill="#fff" d="M0 0h40v40H0z"/></clipPath></defs></svg>